HIERARCHY
ROOT pelvis
{
  OFFSET 0 100 0
  CHANNELS 6 Xposition Yposition Zposition Zrotation Xrotation Yrotation
  JOINT pelvis_right_femur
  {
    OFFSET -10.78128 -3.44521 -0.5502486
    CHANNELS 3 Zrotation Xrotation Yrotation
    JOINT right_femur_tibia
    {
      OFFSET -0.8047443 -44.0398 -0.1307829
      CHANNELS 3 Zrotation Xrotation Yrotation
      JOINT right_tibia_foot
      {
        OFFSET 3.006224 -47.83518 -5
        CHANNELS 3 Zrotation Xrotation Yrotation
        End Site
        {
          OFFSET 0 -5 15
        }
      }
    }
  }
  JOINT pelvis_left_femur
  {
    OFFSET 10.78128 -3.44521 -0.5502486
    CHANNELS 3 Zrotation Xrotation Yrotation
    JOINT left_femur_tibia
    {
      OFFSET 0.8047443 -44.0398 -0.1307829
      CHANNELS 3 Zrotation Xrotation Yrotation
      JOINT left_tibia_foot
      {
        OFFSET -4.370144 -48.10324 -4.275266
        CHANNELS 3 Zrotation Xrotation Yrotation
        End Site
        {
          OFFSET 0 -5 15
        }
      }
    }
  }
  JOINT pelvis_spine1
  {
    OFFSET 0 6.468898 -3.129235
    CHANNELS 3 Zrotation Xrotation Yrotation
    JOINT spine1
    {
      OFFSET 0 23.15396 4.99043
      CHANNELS 3 Zrotation Xrotation Yrotation
      JOINT spine2
      {
        OFFSET 0 20.79997 -5.064912
        CHANNELS 3 Zrotation Xrotation Yrotation
        JOINT neck
        {
          OFFSET 0 14.38658 9.616178
          CHANNELS 3 Zrotation Xrotation Yrotation
          End Site
          {
            OFFSET 0 20 0
          }
        }
      }
      JOINT right_manubrium
      {
        OFFSET -5.722621 16.35077 3.967754
        CHANNELS 3 Zrotation Xrotation Yrotation
        JOINT right_clavicle
        {
          OFFSET -13.16364 1.694482 -4.693211
          CHANNELS 3 Zrotation Xrotation Yrotation
          JOINT right_humerus
          {
            OFFSET -28.5034 -0.3100689 -2.792744
            CHANNELS 3 Zrotation Xrotation Yrotation
            JOINT right_radius
            {
              OFFSET -25.15693 0.02248979 -1.271978
              CHANNELS 3 Zrotation Xrotation Yrotation
              End Site
              {
                OFFSET -15 0 0
              }
            }
          }
        }
      }
      JOINT left_manubrium
      {
        OFFSET 5.722621 16.35077 3.967754
        CHANNELS 3 Zrotation Xrotation Yrotation
        JOINT left_clavicle
        {
          OFFSET 13.16364 1.694482 -4.693211
          CHANNELS 3 Zrotation Xrotation Yrotation
          JOINT left_humerus
          {
            OFFSET 29.39168 -1.063119 -2.237045
            CHANNELS 3 Zrotation Xrotation Yrotation
            JOINT left_radius
            {
              OFFSET 24.59957 -0.9528479 0.9047498
              CHANNELS 3 Zrotation Xrotation Yrotation
              End Site
              {
                OFFSET 15 -0 -0
              }
            }
          }
        }
      }
    }
  }
}
MOTION
Frames: 11
Frame Time: 0.0416666666667
0 103.5113 0 1.180261 -0.2246203 -0.1682589 3.543302 -16.41204 11.29096 -0 39.0106 -0 -5.77945 -17.54678 -3.49347 -7.775201 8.593006 -23.14446 -0 4.987864 -0 15.61391 -13.19551 30.38135 -4.304357 -4.476311 5.500034 2.9913 10.65241 -7.862336 1.685145 21.64761 6.204473 2.449142 -25.1359 9.927736 6.425962 -20.78763 11.82195 85.13031 37.25896 -17.63719 -0 0 16.72708 -6.655469 8.549855 4.609651 5.838878 -19.47007 -0.6798528 -92.03344 20.22931 20.36334 0 0 -14.24811 15.86474 14.30494 -4.474099
0.3870201 103.4859 1.54792 1.007098 -0.02818742 -0.30161 3.892138 -17.89312 10.81559 -0 38.1286 -0 -5.879851 -16.3471 -3.216242 -7.61176 9.047017 -22.71116 -0 5.266873 -0 15.26577 -13.69053 29.85287 -4.154644 -4.176037 5.312869 2.973693 10.63391 -7.86802 1.653818 21.55442 6.289693 2.585944 -25.16036 9.88473 6.431213 -20.56688 11.80141 85.24791 37.42441 -17.75357 -0 0 16.42593 -6.775748 8.570112 4.579018 6.00392 -19.64009 -0.8244236 -91.73618 20.03872 19.98866 0 0 -14.74483 16.09821 14.13679 -4.778008
0.7432317 103.4421 3.343395 0.7087629 0.2172447 -0.3406832 4.330661 -20.0816 9.933513 -0 36.72235 -0 -6.055311 -14.45445 -2.830248 -7.305909 9.813662 -22.08855 -0 5.58384 -0 14.17831 -14.69283 28.70833 -3.871477 -3.705099 4.956366 2.926027 10.52816 -7.847816 1.608831 21.50679 6.453023 2.771465 -25.23451 9.848531 6.340811 -20.21647 11.76871 85.56763 37.27719 -18.11452 -0 0 15.80847 -7.126298 8.633924 4.672139 6.161727 -19.9268 -1.132492 -91.44683 20.49788 19.61926 0 0 -15.72792 15.67431 14.28488 -4.181457
1.069359 103.3414 5.383576 0.4298945 0.7358776 -0.3277698 4.970395 -22.43331 9.439656 -0 34.18778 -0 -5.910463 -13.43762 -2.571553 -7.079749 10.50925 -21.47438 -0 6.058304 -0 13.46371 -15.61229 27.86341 -3.623106 -3.34503 4.786583 2.996452 10.34926 -7.906847 1.600234 21.34722 6.517369 2.840897 -25.40214 9.861504 6.232927 -19.90506 11.67468 85.7953 37.24809 -18.51492 -0 0 15.40276 -6.981638 8.574257 4.508305 6.411973 -20.14085 -1.21515 -91.22102 20.67895 19.22161 0 0 -16.6647 15.55269 14.08997 -4.004551
1.357442 103.1678 7.635584 0.1553916 1.505693 -0.273275 5.788282 -24.69078 9.41988 -0 31.0012 -0 -5.439932 -13.41702 -2.541981 -6.904186 11.16758 -21.09301 -0 6.713843 -0 12.75181 -16.58465 27.23869 -3.40454 -3.117687 4.768717 3.161622 9.983288 -7.991563 1.668917 21.15702 6.491293 2.775989 -25.70256 9.997525 6.111696 -19.59121 11.48494 85.92635 37.25161 -18.97659 -0 0 15.1921 -6.28398 8.414982 4.088369 6.65239 -20.15951 -1.041422 -91.30256 21.24021 19.07997 0 0 -17.45893 15.13044 13.92207 -3.434667
1.600566 102.9336 10.07966 -0.1220651 2.389603 -0.166234 6.693816 -26.61644 9.76956 -0 27.8389 -0 -4.793262 -14.02444 -2.71168 -6.741711 11.73906 -20.97122 -0 7.667265 -0 11.83006 -17.58196 26.71884 -3.202728 -2.976462 4.834368 3.35187 9.436701 -8.03155 1.829481 20.99792 6.399887 2.624863 -26.06645 10.25565 5.994768 -19.22857 11.19954 85.94615 37.27537 -19.39107 -0 0 15.12017 -5.234604 8.224691 3.503261 6.827864 -19.94525 -0.6730634 -91.71637 22.29134 19.25234 0 0 -17.95409 14.28397 13.93617 -2.302913
1.795905 102.6608 12.73301 -0.4265845 3.16637 0.02501532 7.502167 -28.2254 10.06847 -0 25.22036 -0 -4.249906 -14.44169 -2.92825 -6.51869 12.26045 -20.95356 -0 8.867247 -0 10.40466 -18.63067 25.96078 -2.968599 -2.802506 4.838159 3.472102 8.803443 -7.974116 2.041018 20.93476 6.324634 2.497785 -26.37367 10.56312 5.873063 -18.77864 10.87334 85.94057 37.2054 -19.7264 -0 0 14.99159 -4.33136 8.131904 2.978529 6.911024 -19.62848 -0.3267183 -92.31227 23.80555 19.63035 0 0 -18.26955 12.95366 14.25581 -0.5263331
1.960079 102.3233 15.72021 -0.7788804 3.653348 0.3361955 7.98901 -30.25488 9.493306 -0 22.82785 -0 -4.294653 -12.90405 -2.772708 -6.174058 12.89708 -20.37752 -0 9.806365 -0 8.513927 -19.78742 24.41084 -2.652685 -2.399255 4.582519 3.463828 8.442159 -7.912419 2.108404 20.88213 6.430984 2.621397 -26.52429 10.63848 5.727091 -18.32561 10.70646 86.21863 36.98274 -20.19362 -0 0 14.39936 -4.474905 8.283135 2.965781 6.987991 -19.75784 -0.4364788 -92.38823 25.01828 19.65973 0 0 -19.24131 11.61987 14.55241 1.284895
2.152434 101.6993 19.37695 -1.113 3.7575 0.7722062 7.729482 -33.84154 6.732909 -0 18.26892 -0 -5.486587 -7.011043 -1.544338 -5.783946 13.64531 -17.74815 -0 9.372082 -0 6.756266 -21.05564 21.32371 -2.238662 -1.638459 3.992914 3.382184 9.05065 -8.14703 1.667888 20.56161 6.864237 3.171684 -26.53584 9.934749 5.2552 -18.2712 11.07089 87.4887 35.88403 -21.43973 -0 0 12.66064 -7.06904 8.619162 4.338702 7.253921 -21.46993 -1.6438 -90.63236 24.20808 18.29929 0 0 -22.66576 11.35327 13.8209 1.843528
2.438073 100.1757 24.09257 -0.8958831 2.993923 1.255781 5.342561 -37.07706 0.3796449 -0 7.383778 -0 -7.432229 1.576894 0.7136993 -5.771304 14.13595 -12.15758 -0 6.187105 -0 5.35379 -22.33433 16.30364 -1.880908 -1.143078 3.527446 3.269701 10.72478 -8.720308 0.6536885 20.23483 7.280658 3.556888 -26.106 8.173805 3.237214 -19.16043 11.97295 90.41234 30.45553 -23.99519 -0 0 9.257835 -13.01592 8.312292 7.784026 7.698529 -25.50944 -4.248481 -86.83562 20.95859 15.00278 0 0 -29.93496 11.75652 11.86413 1.619529
2.721291 97.59071 29.84046 0.1974056 1.180227 1.815617 2.016051 -35.22044 -5.725265 0 -4.676324 0 -8.627954 5.006429 1.083331 -6.353341 15.70966 -7.462623 -0 2.835907 -0 3.644921 -23.20246 11.87649 -1.877915 -2.248377 3.540057 3.017087 11.49166 -8.96637 0.2240939 21.02995 6.713008 2.67781 -24.76072 6.702731 -0.5917821 -20.01337 12.10814 94.03914 20.30014 -26.53408 -0 0 4.998403 -18.40246 6.813059 10.91277 7.625195 -29.20862 -6.401898 -83.48273 19.51491 10.92274 0 0 -37.28196 10.15419 11.63808 3.709492
